HIERARCHY
ROOT Hips
{
	OFFSET 0.000000 0.000000 0.000000
	CHANNELS 6 Xposition Yposition Zposition Zrotation Yrotation Xrotation 
	JOINT LHipJoint
	{
		OFFSET 0.000000 0.000000 0.000000
		CHANNELS 3 Zrotation Yrotation Xrotation
		JOINT LeftUpLeg
		{
			OFFSET 1.363060 -1.794630 0.839290
			CHANNELS 3 Zrotation Yrotation Xrotation
			JOINT LeftLeg
			{
				OFFSET 2.448110 -6.726130 0.000000
				CHANNELS 3 Zrotation Yrotation Xrotation
				JOINT LeftFoot
				{
					OFFSET 2.562200 -7.039590 0.000000
					CHANNELS 3 Zrotation Yrotation Xrotation
					JOINT LeftToeBase
					{
						OFFSET 0.157640 -0.433110 2.322550
						CHANNELS 3 Zrotation Yrotation Xrotation
						End Site
						{
							OFFSET 0.000000 0.000000 0.000000
						}
					}
				}
			}
		}
	}
	JOINT RHipJoint
	{
		OFFSET 0.000000 0.000000 0.000000
		CHANNELS 3 Zrotation Yrotation Xrotation
		JOINT RightUpLeg
		{
			OFFSET -1.305520 -1.794630 0.839290
			CHANNELS 3 Zrotation Yrotation Xrotation
			JOINT RightLeg
			{
				OFFSET -2.542530 -6.985550 0.000000
				CHANNELS 3 Zrotation Yrotation Xrotation
				JOINT RightFoot
				{
					OFFSET -2.568260 -7.056230 0.000000
					CHANNELS 3 Zrotation Yrotation Xrotation
					JOINT RightToeBase
					{
						OFFSET -0.164730 -0.452590 2.363150
						CHANNELS 3 Zrotation Yrotation Xrotation
						End Site
						{
							OFFSET 0.000000 0.000000 0.000000
						}
					}
				}
			}
		}
	}
	JOINT LowerBack
	{
		OFFSET 0.000000 0.000000 0.000000
		CHANNELS 3 Zrotation Yrotation Xrotation
		JOINT Spine
		{
			OFFSET 0.028270 2.035590 -0.193380
			CHANNELS 3 Zrotation Yrotation Xrotation
			JOINT Spine1
			{
				OFFSET 0.056720 2.048850 -0.042750
				CHANNELS 3 Zrotation Yrotation Xrotation
				JOINT Neck
				{
					OFFSET 0.000000 0.000000 0.000000
					CHANNELS 3 Zrotation Yrotation Xrotation
					JOINT Neck1
					{
						OFFSET -0.054170 1.746240 0.172020
						CHANNELS 3 Zrotation Yrotation Xrotation
						JOINT Head
						{
							OFFSET 0.104070 1.761360 -0.123970
							CHANNELS 3 Zrotation Yrotation Xrotation
							End Site
							{
								OFFSET 0.000000 0.000000 0.000000
							}
						}
					}
				}
				JOINT LeftShoulder
				{
					OFFSET 0.000000 0.000000 0.000000
					CHANNELS 3 Zrotation Yrotation Xrotation
					JOINT LeftArm
					{
						OFFSET 3.362410 1.200890 -0.311210
						CHANNELS 3 Zrotation Yrotation Xrotation
						JOINT LeftForeArm
						{
							OFFSET 4.983000 -0.000000 -0.000000
							CHANNELS 3 Zrotation Yrotation Xrotation
							JOINT LeftHand
							{
								OFFSET 3.483560 -0.000000 -0.000000
								CHANNELS 3 Zrotation Yrotation Xrotation
								JOINT LeftFingerBase
								{
									OFFSET 0.000000 0.000000 0.000000
									CHANNELS 3 Zrotation Yrotation Xrotation
									JOINT LeftHandIndex1
									{
										OFFSET 0.715260 -0.000000 -0.000000
										CHANNELS 3 Zrotation Yrotation Xrotation
										End Site
										{
											OFFSET 0.000000 0.000000 0.000000
										}
									}
								}
								JOINT LThumb
								{
									OFFSET 0.000000 0.000000 0.000000
									CHANNELS 3 Zrotation Yrotation Xrotation
									End Site
									{
										OFFSET 0.000000 0.000000 0.000000
									}
								}
							}
						}
					}
				}
				JOINT RightShoulder
				{
					OFFSET 0.000000 0.000000 0.000000
					CHANNELS 3 Zrotation Yrotation Xrotation
					JOINT RightArm
					{
						OFFSET -3.136600 1.374050 -0.404650
						CHANNELS 3 Zrotation Yrotation Xrotation
						JOINT RightForeArm
						{
							OFFSET -5.241900 -0.000000 -0.000000
							CHANNELS 3 Zrotation Yrotation Xrotation
							JOINT RightHand
							{
								OFFSET -3.444170 -0.000000 -0.000000
								CHANNELS 3 Zrotation Yrotation Xrotation
								JOINT RightFingerBase
								{
									OFFSET 0.000000 0.000000 0.000000
									CHANNELS 3 Zrotation Yrotation Xrotation
									JOINT RightHandIndex1
									{
										OFFSET -0.622530 -0.000000 -0.000000
										CHANNELS 3 Zrotation Yrotation Xrotation
										End Site
										{
											OFFSET 0.000000 0.000000 0.000000
										}
									}
								}
								JOINT RThumb
								{
									OFFSET 0.000000 0.000000 0.000000
									CHANNELS 3 Zrotation Yrotation Xrotation
									End Site
									{
										OFFSET 0.000000 0.000000 0.000000
									}
								}
							}
						}
					}
				}
			}
		}
	}
}
MOTION
Frames: 7
Frame Time: 0.008333
22.539853 17.055761 -1.111617 178.107165 -7.399726 -158.370825 9.808756 2.423697 -2.260149 -32.435853 -15.813249 -2.840971 1.439935 8.594666 25.987280 -0.814920 -14.727799 -19.553848 2.263100 -9.393800 -27.035100 -15.073812 -2.742758 0.109838 19.046130 25.029574 -38.383042 1.428937 -6.944675 10.686727 -0.656876 -11.267954 -12.612982 -3.716400 11.773200 -34.934300 -2.319564 -5.851874 -26.812579 2.486637 -7.910317 -5.069266 -2.560487 -5.206189 17.480596 2.506245 -6.505448 -6.596055 -12.496850 -0.506544 33.180505 -7.936400 1.661300 9.073000 17.224325 0.227612 0.177195 -103.233455 -11.478151 33.442973 18.526849 -22.780532 -4.946227 -1.555676 0.167254 -1.516302 21.576012 -9.823800 -4.220400 -7.125000 0.000000 0.000000 -2.753400 19.185700 1.697600 -10.688297 1.796238 0.791734 98.793273 -10.740644 -13.586198 -8.558717 17.420940 -1.541788 0.905577 3.655550 9.863136 -10.426794 -47.531151 8.400800 7.125000 0.000000 0.000000 61.312800 -74.643800 -46.608600 
22.566660 17.054780 -1.300464 178.281086 -7.272791 -158.425467 9.815602 2.431782 -2.260533 -32.260722 -15.861022 -2.726315 1.623949 8.940738 27.112220 -0.781238 -14.325558 -19.337717 2.742400 -10.265900 -29.842200 -15.072351 -2.773001 0.100987 19.741911 24.889147 -38.438364 1.357971 -7.384012 11.878603 -0.652218 -10.174433 -12.170366 -2.856700 10.459400 -30.477700 -2.113524 -5.791922 -26.972680 2.511786 -7.925917 -5.089107 -2.652647 -5.192028 17.489758 2.492031 -6.629915 -6.538376 -12.503524 -0.694369 33.209570 -7.948300 1.567900 9.020200 17.192971 0.259027 0.177277 -103.391261 -11.081744 33.010731 18.363938 -22.568402 -4.856933 -1.553446 0.200599 -1.170972 21.504832 -9.994656 -4.286700 -7.125000 0.000000 0.000000 -2.812200 18.981500 1.746700 -10.672453 1.766124 0.790301 98.870770 -10.672148 -13.784943 -8.469613 17.268029 -1.505630 0.898390 3.669871 9.783318 -10.382937 -47.709079 8.384700 7.125000 0.000000 0.000000 61.992000 -74.700700 -47.266300 
22.592813 17.058921 -1.480267 178.563487 -7.069475 -158.376450 9.828768 2.420318 -2.265477 -31.961667 -15.986061 -2.904113 1.848894 9.379273 28.463371 -0.778832 -13.860377 -18.890503 3.041100 -10.761300 -31.479100 -15.078880 -2.795168 0.100757 20.451787 24.931385 -38.682331 1.299352 -7.866935 13.134090 -0.641829 -9.442886 -11.977517 -2.236900 9.343000 -26.874200 -1.796243 -5.658475 -27.181519 2.556879 -7.901710 -5.110212 -2.722131 -5.156183 17.505678 2.591903 -6.660056 -6.606984 -12.592111 -0.758786 33.055745 -8.016100 1.519600 8.974900 17.163818 0.289209 0.174154 -103.524830 -10.843873 32.736489 18.159835 -22.282793 -4.738668 -1.562072 0.210978 -0.864631 21.548636 -9.884291 -4.252900 -7.125000 0.000000 0.000000 -2.770400 19.093200 1.713800 -10.659398 1.759119 0.777243 98.910753 -10.673836 -13.444548 -8.510033 17.338949 -1.519392 0.878261 3.702673 9.165328 -10.665103 -48.142035 8.674600 7.125000 0.000000 0.000000 63.409600 -74.984900 -48.827300 
22.620710 17.071017 -1.652442 178.876176 -6.813896 -158.357124 9.850397 2.397781 -2.280427 -31.601325 -16.083923 -3.300444 2.135428 9.919945 30.113338 -0.803883 -13.365254 -18.240884 3.297700 -11.162100 -32.828500 -15.089919 -2.798256 0.112276 21.005789 25.382247 -38.987595 1.251394 -8.424502 14.550052 -0.632798 -9.212109 -12.157641 -2.676700 10.152300 -29.471500 -1.492959 -5.462737 -27.319894 2.593688 -7.796240 -5.135371 -2.740000 -5.086617 17.454562 2.585675 -6.823189 -6.504004 -12.646021 -1.003764 33.011270 -8.054300 1.394400 8.877300 17.127159 0.293680 0.173230 -103.614375 -10.715397 32.728735 17.851925 -21.839298 -4.562300 -1.582225 0.225960 -0.719002 21.648497 -9.780273 -4.238700 -7.125000 0.000000 0.000000 -2.681600 19.183100 1.653400 -10.632776 1.748296 0.773579 99.003606 -10.545998 -13.747502 -8.450158 17.230140 -1.502020 0.928815 3.706478 8.995774 -11.600038 -48.152877 9.471700 7.125000 0.000000 0.000000 62.919600 -75.369600 -48.802300 
22.650459 17.088016 -1.822873 179.196751 -6.551036 -158.416426 9.882649 2.387030 -2.286597 -31.203762 -16.089460 -3.881259 2.505479 10.559605 32.094490 -0.904645 -12.986052 -17.201753 2.664100 -10.130300 -29.399800 -15.116035 -2.832498 0.091849 22.199063 25.026977 -38.669761 1.174571 -8.581639 15.081832 -0.614198 -8.090790 -11.430444 -3.661700 11.696100 -34.665400 -1.222934 -5.263486 -27.361230 2.621892 -7.670417 -5.154461 -2.732099 -5.007536 17.392710 2.564016 -7.057864 -6.389531 -12.682256 -1.371490 32.967388 -8.091500 1.206100 8.748000 17.080937 0.305836 0.166546 -103.748511 -10.522994 32.495969 17.563131 -21.424774 -4.400534 -1.591059 0.260220 -0.441545 21.646254 -9.845436 -4.279000 -7.125000 0.000000 0.000000 -2.679600 19.082800 1.658100 -10.586544 1.731474 0.783034 99.071614 -9.978616 -15.379367 -8.087282 16.577060 -1.371109 1.056577 3.669359 10.341563 -12.190279 -47.743314 9.921900 7.125000 0.000000 0.000000 61.035200 -75.454200 -47.220300 
22.677266 17.104471 -1.993740 179.365220 -6.140502 -158.466693 9.909886 2.374606 -2.297942 -31.016044 -15.923456 -4.608277 2.924829 11.246394 34.241355 -0.997866 -12.454933 -15.972642 1.775400 -8.381600 -23.879400 -15.110375 -2.840040 0.076155 22.892798 25.021501 -38.625403 1.105779 -8.983054 16.182734 -0.594733 -7.576232 -11.842447 -1.799900 8.436200 -24.047000 -1.100838 -5.114473 -27.346792 2.635209 -7.548228 -5.193125 -2.710999 -4.941837 17.244668 2.668916 -7.092942 -6.352635 -12.758849 -1.453623 32.809896 -8.162800 1.162800 8.676500 17.036520 0.346242 0.162906 -103.920124 -10.068586 31.831375 17.283042 -21.031866 -4.244724 -1.609586 0.324922 0.194595 21.807125 -10.097698 -4.442600 -7.125000 0.000000 0.000000 -2.561600 18.745400 1.604100 -10.544772 1.717762 0.777423 99.060723 -9.645042 -16.191996 -7.863108 16.156589 -1.285247 1.081249 3.657189 11.144923 -11.724020 -47.615033 9.512600 7.125000 0.000000 0.000000 60.872700 -75.215500 -46.826700 
22.701676 17.122015 -2.166351 179.553161 -5.707338 -158.608186 9.935422 2.369341 -2.317790 -30.826678 -15.597108 -5.409880 3.403035 11.976323 36.592900 -1.031342 -11.664835 -14.726152 1.613500 -8.009800 -22.743700 -15.121496 -2.850704 0.058608 23.755361 24.980467 -38.143850 1.052649 -9.159465 16.767586 -0.577476 -7.044822 -12.168752 -0.404500 4.083300 -11.311100 -0.948840 -4.963363 -27.272220 2.667796 -7.435342 -5.222627 -2.672427 -4.879200 17.092017 2.634636 -7.032750 -6.278156 -12.846284 -1.299377 32.805244 -8.185200 1.245800 8.702500 16.981079 0.371852 0.177532 -104.122379 -9.649715 31.060726 16.885663 -20.459189 -4.027242 -1.622216 0.415743 0.963734 21.893004 -10.450958 -4.643800 -7.125000 0.000000 0.000000 -2.505500 18.280300 1.594700 -10.514290 1.719310 0.765504 99.008355 -9.632355 -15.625883 -7.923361 16.247681 -1.306541 1.082539 3.714063 10.446192 -12.346294 -48.404380 10.150400 7.125000 0.000000 0.000000 63.557700 -75.777300 -49.806800 
